<svg  xmlns="http://www.w3.org/2000/svg" xmlns:xlink="http://www.w3.org/1999/xlink" viewBox="0 0 640 640" shape-rendering="geometricPrecision" text-rendering="geometricPrecision"><defs><linearGradient id="eJGlTw98VfD3-fill" x1="0.215154" y1="0.780113" x2="0.756772" y2="0.270218" spreadMethod="pad" gradientUnits="objectBoundingBox" gradientTransform="translate(0 0)"><stop id="eJGlTw98VfD3-fill-0" offset="0%" stop-color="#00ffc8"/><stop id="eJGlTw98VfD3-fill-1" offset="100%" stop-color="#7e93ff"/></linearGradient><linearGradient id="eJGlTw98VfD4-fill" x1="1.636801" y1="-0.552278" x2="0.401187" y2="0.886182" spreadMethod="pad" gradientUnits="objectBoundingBox" gradientTransform="translate(0 0)"><stop id="eJGlTw98VfD4-fill-0" offset="0%" stop-color="#00fdf0"/><stop id="eJGlTw98VfD4-fill-1" offset="100%" stop-color="#2d7971"/></linearGradient><linearGradient id="eJGlTw98VfD5-stroke" x1="0" y1="0.5" x2="1" y2="0.5" spreadMethod="pad" gradientUnits="objectBoundingBox" gradientTransform="translate(0 0)"><stop id="eJGlTw98VfD5-stroke-0" offset="0%" stop-color="#8fc2ff"/><stop id="eJGlTw98VfD5-stroke-1" offset="100%" stop-color="#fff"/></linearGradient></defs><g transform="translate(-67.189084 99.505905)"><path d="M167.54705,66.547574c5.99317,9.33854,31.337222,41.380296,29.687982,43.029536s-31.579802-23.120266-39.455662-29.163056c-19.94914-13.67941-33.35103-74.05855-65.62482-61.45161s16.870812,132.413851,64.690607,179.292928c49.476712,48.503399,71.467306,88.197416,47.893356,134.105946s-91.175367,56.0719-178.836295,34.560016-155.142865-92.174706-192.848658-153.47097c45.0791,12.66686,92.10564,7.40727,132.56973,7.47016-3.44755-4.86612-7.03977-9.78445-10.84177-14.72655-8.47317-11.01402-19.66934-20.15112-31.97509-27.54992c40.61014,1.72239,86.39745,3.08449,123.06741,8.70543c18.31675,2.80768,34.78075,8.7111,49.12945,16.14624-7.13383-10.97956-14.16993-22.88006-20.72163-35.37401-30.17144-57.53623-51.22128-142.43726-14.73489-178.22199s84.181011-17.380012,102.76444,16.49967s9.376559,48.018998.611629,49.816938q1.441135,4.49295,4.624211,10.331242Z" transform="translate(315.646962 15.7385)" fill="url(#eJGlTw98VfD3-fill)" stroke-width="5" stroke-miterlimit="36" stroke-dasharray="2648.4"/><path d="M354.767411,287.339369c18.520077,13.644275,64.300979,44.149314,49.978488,75.523048s-62.603644,47.154916-144.984484,16.556318-152.665178-112.626078-168.769357-137.615322c139.939766,2.221266,185.564581,2.410323,263.775353,45.535956Z" transform="translate(54.090417-11.029443)" fill="url(#eJGlTw98VfD4-fill)" stroke-width="1.28"/></g><path d="M220.914252,431.101285c90.2536,15.239556,161.417616,9.003373,184.99156-36.905159s-10.50092-83.273885-59.159254-128.330123-105.616875-169.530414-73.34309-182.137362s45.67567,47.772194,65.624815,61.451608c7.875866,6.042797,15.085439,2.615719,16.734674.966484s-.973821-5.494419-6.966995-14.832957-11.197352-25.187854-13.035023-33.261784-8.540189-19.327793-11.23709-14.383474s4.944319,22.474177,13.709249,20.676243s18.611023-7.022038,5.327031-33.179158-66.278046-52.2844-102.764437-16.49967-15.43655,120.685754,14.734889,178.221986s70.61553,102.487246,83.570615,102.868279-31.730804-71.339778-111.978432-83.640509-204.158148-4.205912-221.923411-24.12454s89.277642-11.045052,130.831092,42.969035s58.048709,105.188894,134.489288,116.390579s50.053405-53.601311-7.7429-85.126568-253.846327-37.402494-253.846327-37.402494s77.082461,142.497371,211.983746,166.279584Z" transform="translate(92.589194 55.478103)" fill="none" stroke="url(#eJGlTw98VfD5-stroke)" stroke-width="5" stroke-miterlimit="36" stroke-dashoffset="2659.74" stroke-dasharray="2659.74"/></svg>
